<svg id="svg" xmlns="http://www.w3.org/2000/svg" xmlns:xlink="http://www.w3.org/1999/xlink" width="400" height="343.6363636363637" viewBox="0, 0, 400,343.6363636363637"><g id="svgg"><path id="path0" d="M18.743 0.233 C 18.373 0.337,17.742 0.637,17.341 0.899 C 16.940 1.162,16.508 1.273,16.382 1.147 C 16.255 1.020,16.151 1.079,16.151 1.277 C 16.151 1.476,15.881 1.736,15.550 1.855 C 14.137 2.366,10.653 5.143,10.653 5.759 C 10.653 5.903,10.266 6.438,9.794 6.947 C 9.321 7.457,8.935 8.181,8.935 8.556 C 8.935 8.931,8.796 9.323,8.627 9.428 C 8.025 9.800,6.826 12.498,6.988 13.116 C 7.078 13.462,7.012 13.832,6.841 13.937 C 6.669 14.043,6.529 14.362,6.529 14.645 C 6.529 14.966,6.691 15.063,6.959 14.903 C 7.253 14.726,7.240 14.828,6.918 15.224 C 6.561 15.665,6.500 16.522,6.664 18.812 C 6.783 20.467,6.888 22.089,6.898 22.416 C 6.908 22.743,7.061 23.100,7.238 23.209 C 7.415 23.319,7.560 23.729,7.560 24.121 C 7.560 24.513,7.831 25.084,8.162 25.389 C 9.164 26.314,9.897 27.342,9.297 26.980 C 8.560 26.535,10.218 28.757,11.697 30.195 C 13.485 31.934,14.716 32.990,14.954 32.990 C 15.066 32.990,15.726 33.376,16.421 33.849 C 17.116 34.321,18.075 34.710,18.551 34.713 C 19.235 34.717,19.308 34.788,18.900 35.052 C 18.484 35.321,18.533 35.386,19.158 35.390 C 19.583 35.393,19.931 35.535,19.931 35.705 C 19.931 35.875,20.614 36.297,21.449 36.642 C 22.284 36.988,22.894 37.390,22.804 37.535 C 22.714 37.681,23.045 37.801,23.540 37.801 C 24.034 37.801,24.346 37.951,24.233 38.134 C 24.120 38.318,24.420 38.566,24.900 38.687 C 25.380 38.808,25.773 39.044,25.773 39.213 C 25.773 39.381,26.048 39.519,26.385 39.519 C 26.721 39.519,27.219 39.828,27.491 40.206 C 27.764 40.584,28.106 40.893,28.252 40.893 C 28.782 40.893,31.271 42.093,31.271 42.349 C 31.271 42.494,31.503 42.612,31.787 42.612 C 32.070 42.612,32.302 42.783,32.302 42.992 C 32.302 43.201,32.538 43.282,32.826 43.172 C 33.114 43.061,33.654 43.276,34.028 43.650 C 34.402 44.024,34.839 44.330,34.998 44.330 C 35.158 44.330,35.565 44.636,35.903 45.009 C 36.241 45.383,36.642 45.611,36.795 45.517 C 36.947 45.423,37.197 45.543,37.350 45.783 C 37.732 46.382,42.424 48.637,43.029 48.512 C 43.164 48.485,43.188 48.685,43.084 48.959 C 42.957 49.288,43.193 49.531,43.783 49.679 C 44.273 49.802,44.676 50.079,44.679 50.295 C 44.682 50.511,44.834 50.455,45.017 50.172 C 45.239 49.828,45.352 49.800,45.356 50.086 C 45.358 50.322,45.602 50.515,45.897 50.515 C 46.214 50.515,46.332 50.677,46.187 50.912 C 46.038 51.153,46.093 51.216,46.326 51.071 C 46.537 50.941,47.022 51.145,47.402 51.526 C 47.828 51.951,48.318 52.132,48.674 51.996 C 49.067 51.845,49.173 51.904,49.004 52.178 C 48.856 52.416,49.010 52.673,49.377 52.802 C 49.720 52.924,50.464 53.360,51.031 53.772 C 51.598 54.184,52.874 54.885,53.866 55.329 C 54.858 55.773,55.670 56.272,55.670 56.439 C 55.670 56.605,55.826 56.645,56.016 56.528 C 56.207 56.410,56.455 56.555,56.568 56.849 C 56.681 57.143,56.911 57.299,57.081 57.194 C 57.250 57.090,57.388 57.168,57.388 57.368 C 57.388 57.568,57.504 57.714,57.646 57.691 C 58.328 57.584,59.242 57.801,58.818 57.970 C 58.299 58.177,61.503 60.137,62.359 60.137 C 62.649 60.137,62.887 60.292,62.887 60.481 C 62.887 60.670,63.119 60.825,63.402 60.825 C 63.686 60.825,63.918 60.989,63.918 61.189 C 63.918 61.389,64.073 61.456,64.264 61.339 C 64.454 61.221,64.706 61.375,64.823 61.682 C 64.941 61.988,65.258 62.154,65.527 62.051 C 65.797 61.947,66.403 62.248,66.873 62.718 C 67.344 63.189,67.937 63.574,68.192 63.574 C 68.447 63.574,68.744 63.806,68.853 64.089 C 68.962 64.373,69.275 64.605,69.549 64.605 C 70.170 64.605,72.160 65.716,72.163 66.065 C 72.164 66.207,72.397 66.323,72.680 66.323 C 72.964 66.323,73.196 66.478,73.196 66.667 C 73.196 66.856,73.505 67.010,73.883 67.010 C 74.261 67.010,74.570 67.155,74.570 67.331 C 74.570 67.507,74.918 67.760,75.344 67.893 C 75.769 68.025,76.208 68.275,76.320 68.448 C 76.431 68.621,76.850 68.788,77.250 68.818 C 77.650 68.848,77.908 68.942,77.822 69.027 C 77.526 69.323,79.041 70.141,79.435 69.898 C 79.699 69.735,79.737 69.806,79.550 70.108 C 79.346 70.439,79.425 70.503,79.841 70.344 C 80.155 70.223,80.412 70.270,80.412 70.449 C 80.412 70.627,80.907 71.029,81.512 71.342 C 82.117 71.654,82.824 72.122,83.083 72.381 C 83.342 72.640,83.852 72.852,84.217 72.852 C 84.581 72.852,84.880 73.016,84.880 73.216 C 84.880 73.416,85.033 73.485,85.220 73.369 C 85.408 73.254,85.955 73.552,86.435 74.033 C 86.916 74.514,87.691 75.003,88.156 75.120 C 88.622 75.237,89.003 75.487,89.003 75.675 C 89.003 75.864,89.235 75.930,89.519 75.821 C 89.821 75.705,90.034 75.816,90.034 76.090 C 90.034 76.522,91.553 77.174,92.208 77.024 C 92.363 76.988,92.412 77.086,92.316 77.242 C 92.219 77.398,92.456 77.723,92.842 77.963 C 93.418 78.323,93.493 78.320,93.264 77.946 C 93.111 77.696,93.493 77.917,94.114 78.436 C 94.734 78.956,95.445 79.381,95.694 79.381 C 95.943 79.381,96.238 79.621,96.350 79.913 C 96.463 80.205,96.750 80.406,96.989 80.359 C 97.592 80.239,99.656 81.380,99.656 81.833 C 99.656 82.037,99.896 82.112,100.190 81.999 C 100.503 81.879,100.634 81.939,100.508 82.143 C 100.389 82.335,100.768 82.658,101.349 82.860 C 101.930 83.063,102.405 83.356,102.405 83.511 C 102.405 83.667,102.880 83.898,103.460 84.026 C 104.039 84.153,104.597 84.474,104.698 84.738 C 104.800 85.003,105.019 85.135,105.186 85.032 C 105.353 84.929,105.824 85.156,106.233 85.538 C 106.642 85.919,107.098 86.156,107.246 86.064 C 107.395 85.972,107.879 86.248,108.323 86.677 C 109.295 87.616,111.321 88.794,111.557 88.558 C 111.650 88.464,112.126 88.759,112.615 89.212 C 113.103 89.665,114.679 90.598,116.116 91.286 C 117.553 91.974,118.821 92.680,118.935 92.855 C 119.231 93.311,120.946 94.158,121.574 94.158 C 121.868 94.158,122.006 94.260,121.881 94.385 C 121.560 94.705,122.952 95.618,123.368 95.360 C 123.557 95.244,123.711 95.312,123.711 95.512 C 123.711 95.713,124.012 95.876,124.379 95.876 C 124.746 95.876,125.288 96.220,125.582 96.640 C 125.876 97.060,126.117 97.290,126.117 97.151 C 126.117 97.012,126.675 97.131,127.356 97.416 C 128.038 97.701,128.716 97.859,128.864 97.768 C 129.011 97.677,129.291 97.794,129.485 98.028 C 129.875 98.499,137.359 98.549,138.417 98.088 C 138.739 97.948,139.274 97.866,139.605 97.907 C 139.936 97.948,140.206 97.817,140.206 97.616 C 140.206 97.415,140.515 97.251,140.893 97.251 C 141.271 97.251,141.581 97.096,141.581 96.907 C 141.581 96.718,141.851 96.559,142.182 96.553 C 142.960 96.539,144.051 95.712,143.723 95.384 C 143.584 95.245,143.625 95.161,143.814 95.198 C 144.539 95.336,145.704 94.741,145.704 94.233 C 145.704 93.940,145.791 93.786,145.896 93.892 C 146.219 94.215,148.489 91.653,148.304 91.172 C 148.209 90.924,148.353 90.722,148.624 90.722 C 149.186 90.722,149.954 89.486,149.674 89.032 C 149.572 88.867,149.729 88.639,150.024 88.526 C 150.318 88.413,150.470 88.178,150.362 88.003 C 150.254 87.828,150.414 87.436,150.718 87.132 C 151.021 86.829,151.189 86.370,151.090 86.113 C 150.992 85.856,151.140 85.319,151.420 84.919 C 151.818 84.351,151.831 84.191,151.480 84.187 C 151.206 84.184,151.165 84.084,151.375 83.929 C 151.815 83.606,151.892 77.561,151.460 77.278 C 151.281 77.161,151.134 76.504,151.134 75.818 C 151.134 75.132,150.995 74.570,150.825 74.570 C 150.655 74.570,150.515 74.203,150.515 73.753 C 150.515 73.304,150.280 72.741,149.992 72.502 C 149.704 72.263,149.545 71.990,149.638 71.896 C 149.732 71.803,149.427 71.272,148.959 70.716 C 148.492 70.161,148.110 69.564,148.110 69.389 C 148.110 68.971,146.839 67.708,146.630 67.918 C 146.540 68.007,146.130 67.608,145.719 67.030 C 145.307 66.452,144.749 65.979,144.478 65.979 C 144.208 65.979,143.986 65.851,143.986 65.694 C 143.986 65.537,143.561 65.194,143.041 64.933 C 142.521 64.672,141.710 64.204,141.237 63.894 C 140.765 63.584,139.953 63.228,139.433 63.102 C 138.913 62.976,138.488 62.722,138.488 62.536 C 138.488 62.351,138.311 62.199,138.094 62.199 C 137.877 62.199,136.885 61.658,135.888 60.997 C 134.891 60.335,133.822 59.794,133.513 59.794 C 133.203 59.794,133.045 59.639,133.162 59.450 C 133.278 59.261,133.169 59.107,132.918 59.107 C 132.667 59.107,131.893 58.720,131.198 58.247 C 130.502 57.775,129.746 57.388,129.518 57.388 C 129.290 57.388,128.547 56.964,127.867 56.444 C 127.188 55.925,126.555 55.487,126.460 55.470 C 125.844 55.359,124.871 54.792,124.639 54.407 C 124.488 54.157,124.054 53.952,123.674 53.952 C 123.248 53.952,123.076 53.803,123.223 53.564 C 123.369 53.328,123.276 53.238,122.986 53.336 C 122.723 53.424,122.304 53.251,122.054 52.951 C 121.703 52.531,121.660 52.524,121.866 52.921 C 122.014 53.204,121.600 52.987,120.947 52.437 C 120.294 51.888,118.980 51.092,118.027 50.669 C 117.075 50.247,116.089 49.652,115.838 49.349 C 115.586 49.046,115.251 48.797,115.093 48.797 C 114.830 48.797,112.662 47.466,111.856 46.809 C 111.307 46.362,110.173 45.934,109.726 46.005 C 109.499 46.041,109.146 45.756,108.941 45.372 C 108.735 44.988,108.254 44.674,107.871 44.674 C 107.489 44.674,107.272 44.519,107.388 44.330 C 107.505 44.141,107.318 43.986,106.973 43.986 C 106.628 43.986,105.773 43.598,105.075 43.123 C 104.376 42.648,103.683 42.280,103.535 42.305 C 102.885 42.412,102.379 42.245,102.545 41.976 C 102.645 41.816,102.306 41.468,101.792 41.203 C 101.279 40.938,100.655 40.528,100.405 40.292 C 100.155 40.056,99.730 39.863,99.460 39.863 C 99.190 39.863,98.969 39.708,98.969 39.519 C 98.969 39.330,98.737 39.175,98.454 39.175 C 98.170 39.175,97.938 38.995,97.938 38.774 C 97.938 38.554,97.840 38.471,97.720 38.591 C 97.600 38.711,97.118 38.507,96.649 38.138 C 96.180 37.769,95.677 37.540,95.531 37.630 C 95.386 37.720,95.076 37.563,94.842 37.281 C 94.609 37.000,94.229 36.770,93.997 36.770 C 93.766 36.770,93.297 36.460,92.955 36.082 C 92.613 35.704,91.987 35.395,91.564 35.395 C 91.141 35.395,90.702 35.153,90.589 34.858 C 90.476 34.562,90.255 34.400,90.099 34.496 C 89.943 34.592,89.393 34.279,88.877 33.800 C 88.345 33.308,87.714 33.015,87.422 33.128 C 87.131 33.239,86.997 33.178,87.115 32.987 C 87.230 32.801,86.890 32.458,86.360 32.225 C 85.829 31.992,85.318 31.709,85.223 31.597 C 84.982 31.310,83.729 30.808,83.419 30.873 C 83.277 30.903,83.162 30.785,83.162 30.611 C 83.162 30.438,82.711 30.196,82.159 30.075 C 81.608 29.954,81.063 29.610,80.948 29.311 C 80.834 29.012,80.657 28.851,80.555 28.953 C 80.453 29.054,79.964 28.762,79.469 28.302 C 78.973 27.843,78.388 27.535,78.168 27.620 C 77.949 27.704,77.557 27.477,77.297 27.117 C 77.037 26.756,76.639 26.460,76.413 26.460 C 76.187 26.460,75.948 26.299,75.883 26.102 C 75.817 25.904,75.424 25.717,75.010 25.686 C 74.595 25.655,74.325 25.561,74.408 25.477 C 74.492 25.394,74.214 25.145,73.792 24.924 C 73.370 24.703,72.290 24.111,71.392 23.608 C 70.494 23.105,69.757 22.807,69.754 22.945 C 69.751 23.083,69.635 23.034,69.496 22.836 C 69.077 22.237,67.108 20.962,66.604 20.962 C 66.345 20.962,65.862 20.646,65.531 20.260 C 65.201 19.874,64.780 19.651,64.596 19.765 C 64.412 19.879,64.261 19.808,64.261 19.608 C 64.261 19.408,64.029 19.244,63.746 19.244 C 63.462 19.244,63.230 19.089,63.230 18.900 C 63.230 18.711,63.114 18.590,62.973 18.630 C 62.831 18.671,62.061 18.284,61.261 17.771 C 60.462 17.258,59.572 16.838,59.285 16.838 C 58.998 16.838,58.763 16.684,58.763 16.495 C 58.763 16.306,58.531 16.151,58.247 16.151 C 57.964 16.151,57.732 15.987,57.732 15.787 C 57.732 15.587,57.583 15.515,57.401 15.628 C 57.219 15.741,56.755 15.518,56.370 15.133 C 55.985 14.748,55.438 14.433,55.155 14.433 C 54.871 14.433,54.639 14.278,54.639 14.089 C 54.639 13.900,54.407 13.746,54.124 13.746 C 53.840 13.746,53.608 13.628,53.608 13.485 C 53.608 13.341,53.283 13.020,52.885 12.772 C 52.286 12.398,52.202 12.399,52.395 12.775 C 52.523 13.026,52.406 12.960,52.135 12.629 C 51.864 12.298,51.389 12.027,51.079 12.027 C 50.769 12.027,50.515 11.906,50.515 11.758 C 50.515 11.315,48.663 10.387,48.148 10.571 C 47.885 10.665,47.758 10.601,47.864 10.429 C 47.970 10.257,47.219 9.662,46.194 9.108 C 45.169 8.553,44.330 7.995,44.330 7.867 C 44.330 7.652,42.868 7.168,42.415 7.233 C 42.306 7.249,41.957 6.981,41.641 6.638 C 41.131 6.085,39.648 5.156,38.144 4.447 C 37.861 4.313,37.209 4.008,36.696 3.768 C 36.182 3.529,35.843 3.202,35.943 3.041 C 36.042 2.880,35.867 2.749,35.554 2.749 C 35.242 2.749,34.537 2.429,33.988 2.038 C 33.333 1.572,32.990 1.476,32.990 1.760 C 32.990 2.042,32.839 1.998,32.560 1.636 C 32.324 1.329,31.821 1.029,31.443 0.969 C 31.065 0.908,30.646 0.704,30.511 0.515 C 30.251 0.152,19.920 -0.096,18.743 0.233 M199.326 182.599 C 199.163 182.762,198.590 182.933,198.054 182.978 C 196.767 183.088,194.845 183.835,194.845 184.226 C 194.845 184.397,194.729 184.518,194.588 184.495 C 193.755 184.364,193.127 184.603,193.127 185.052 C 193.127 185.335,193.011 185.540,192.869 185.507 C 192.434 185.406,190.734 186.340,190.891 186.594 C 190.972 186.725,190.580 187.171,190.021 187.585 C 189.461 187.998,189.003 188.559,189.003 188.830 C 189.003 189.101,188.690 189.491,188.307 189.696 C 187.923 189.901,187.700 190.216,187.811 190.395 C 187.922 190.575,187.845 190.722,187.641 190.722 C 187.274 190.722,186.434 192.365,186.542 192.869 C 186.573 193.011,186.443 193.127,186.254 193.127 C 186.065 193.127,185.911 193.514,185.911 193.986 C 185.911 194.459,185.751 194.845,185.556 194.845 C 185.361 194.845,185.220 195.348,185.243 195.962 C 185.266 196.576,185.271 227.225,185.255 264.070 C 185.235 311.716,185.334 331.127,185.598 331.291 C 185.802 331.417,185.956 331.619,185.940 331.739 C 185.812 332.692,186.030 333.413,186.776 334.512 C 187.251 335.213,187.453 335.671,187.224 335.529 C 186.994 335.387,187.174 335.802,187.623 336.450 C 188.709 338.016,192.501 341.583,192.851 341.367 C 193.003 341.273,193.127 341.348,193.127 341.534 C 193.127 341.719,193.707 342.061,194.416 342.293 C 195.125 342.526,196.048 342.939,196.468 343.212 C 197.490 343.877,209.997 343.722,210.224 343.041 C 210.302 342.805,210.654 342.612,211.005 342.612 C 211.356 342.612,211.754 342.433,211.888 342.215 C 212.051 341.952,211.982 341.912,211.684 342.096 C 211.393 342.276,211.317 342.240,211.470 341.993 C 211.600 341.783,211.926 341.695,212.195 341.798 C 212.464 341.902,213.046 341.624,213.489 341.181 C 213.932 340.738,214.720 340.097,215.241 339.756 C 215.762 339.414,216.285 338.874,216.404 338.554 C 216.522 338.234,216.874 337.741,217.187 337.457 C 218.075 336.651,219.182 334.840,218.557 335.217 C 218.071 335.509,218.497 334.768,219.244 334.021 C 219.752 333.512,220.182 332.348,220.136 331.603 C 220.107 331.137,220.242 330.646,220.437 330.511 C 221.064 330.076,221.095 197.585,220.468 196.378 C 220.192 195.846,220.047 195.279,220.146 195.120 C 220.370 194.757,219.520 192.784,219.140 192.784 C 218.986 192.784,218.952 192.635,219.064 192.452 C 219.177 192.270,218.954 191.806,218.569 191.421 C 217.785 190.637,217.647 190.211,218.299 190.582 C 218.535 190.717,218.468 190.533,218.150 190.173 C 215.130 186.759,214.266 185.911,213.813 185.911 C 213.524 185.911,213.394 185.805,213.523 185.675 C 213.765 185.433,211.033 184.000,210.567 184.124 C 210.425 184.162,210.309 184.038,210.309 183.849 C 210.309 183.660,210.000 183.505,209.622 183.505 C 209.244 183.505,208.935 183.374,208.935 183.214 C 208.935 183.054,208.460 182.909,207.880 182.892 C 207.300 182.876,206.607 182.682,206.341 182.460 C 205.986 182.166,205.576 182.156,204.806 182.424 C 204.155 182.651,203.836 182.662,203.966 182.452 C 204.226 182.030,199.753 182.172,199.326 182.599 " stroke="none" fill="#a4a4a4" fill-rule="evenodd"></path><path id="path1" d="M375.172 0.228 C 374.652 0.316,374.227 0.527,374.227 0.695 C 374.227 0.862,373.686 1.101,373.024 1.225 C 372.363 1.350,371.821 1.588,371.821 1.756 C 371.821 1.924,371.589 2.062,371.306 2.062 C 371.022 2.062,370.790 2.216,370.790 2.405 C 370.790 2.595,370.481 2.749,370.103 2.749 C 369.725 2.749,369.416 2.901,369.416 3.086 C 369.416 3.272,369.029 3.520,368.557 3.639 C 368.084 3.758,367.698 3.992,367.698 4.161 C 367.698 4.329,367.455 4.467,367.158 4.467 C 366.861 4.467,366.414 4.661,366.165 4.897 C 364.971 6.030,364.250 6.477,363.268 6.693 C 362.680 6.822,362.199 7.070,362.199 7.244 C 362.199 7.418,361.927 7.560,361.595 7.560 C 361.262 7.560,360.806 7.856,360.580 8.217 C 360.355 8.578,359.729 8.970,359.190 9.088 C 358.650 9.207,357.990 9.607,357.723 9.978 C 357.455 10.349,356.961 10.653,356.625 10.653 C 356.289 10.653,356.014 10.791,356.014 10.959 C 356.014 11.128,355.614 11.366,355.125 11.489 C 354.637 11.611,353.912 12.015,353.514 12.385 C 353.117 12.755,352.589 13.058,352.341 13.058 C 352.093 13.058,351.890 13.213,351.890 13.402 C 351.890 13.591,351.581 13.746,351.203 13.746 C 350.825 13.746,350.515 13.884,350.515 14.052 C 350.515 14.221,350.129 14.456,349.656 14.574 C 349.184 14.693,348.797 14.941,348.797 15.127 C 348.797 15.312,348.488 15.464,348.110 15.464 C 347.732 15.464,347.423 15.619,347.423 15.808 C 347.423 15.997,347.191 16.151,346.907 16.151 C 346.624 16.151,346.392 16.303,346.392 16.488 C 346.392 16.674,346.005 16.922,345.533 17.041 C 345.060 17.160,344.674 17.395,344.674 17.563 C 344.674 17.732,344.364 17.869,343.986 17.869 C 343.608 17.869,343.299 18.024,343.299 18.213 C 343.299 18.402,343.133 18.557,342.931 18.557 C 342.728 18.557,342.331 18.789,342.047 19.072 C 341.764 19.356,341.233 19.588,340.869 19.588 C 340.504 19.588,340.206 19.742,340.206 19.931 C 340.206 20.120,339.974 20.275,339.691 20.275 C 339.407 20.275,339.175 20.430,339.175 20.619 C 339.175 20.808,338.857 20.962,338.468 20.962 C 338.079 20.962,337.848 21.104,337.955 21.278 C 338.063 21.452,337.685 21.696,337.116 21.821 C 336.548 21.946,336.082 22.161,336.082 22.300 C 336.082 22.439,335.541 22.764,334.880 23.024 C 334.218 23.284,333.677 23.611,333.677 23.752 C 333.677 23.893,333.329 24.117,332.904 24.250 C 332.479 24.383,332.052 24.613,331.956 24.761 C 331.859 24.909,331.550 25.082,331.268 25.144 C 330.987 25.207,330.524 25.494,330.241 25.783 C 329.957 26.072,329.029 26.609,328.179 26.976 C 327.328 27.343,326.382 27.918,326.077 28.254 C 325.771 28.591,325.268 28.866,324.960 28.866 C 324.651 28.866,324.399 29.008,324.399 29.182 C 324.399 29.356,323.927 29.602,323.351 29.729 C 322.775 29.855,322.120 30.254,321.894 30.615 C 321.669 30.976,321.212 31.271,320.880 31.271 C 320.547 31.271,320.275 31.414,320.275 31.588 C 320.275 31.762,319.832 32.001,319.290 32.120 C 318.749 32.239,317.982 32.638,317.587 33.007 C 317.191 33.375,316.706 33.677,316.509 33.677 C 316.312 33.677,316.151 33.832,316.151 34.021 C 316.151 34.210,315.837 34.364,315.453 34.364 C 315.069 34.364,314.666 34.596,314.557 34.880 C 314.448 35.163,314.067 35.395,313.709 35.395 C 313.351 35.395,313.058 35.550,313.058 35.739 C 313.058 35.928,312.749 36.082,312.371 36.082 C 311.993 36.082,311.684 36.219,311.684 36.386 C 311.684 36.553,311.413 36.780,311.082 36.892 C 310.497 37.088,309.280 37.798,308.935 38.145 C 308.840 38.240,308.299 38.549,307.732 38.832 C 307.165 39.115,306.497 39.540,306.247 39.777 C 305.997 40.013,305.495 40.206,305.130 40.206 C 304.766 40.206,304.467 40.361,304.467 40.550 C 304.467 40.739,304.235 40.893,303.952 40.893 C 303.668 40.893,303.436 41.048,303.436 41.237 C 303.436 41.426,303.127 41.581,302.749 41.581 C 302.371 41.581,302.062 41.725,302.062 41.901 C 302.062 42.078,301.726 42.328,301.315 42.459 C 300.569 42.696,300.160 42.972,298.979 44.037 C 298.634 44.349,297.872 44.709,297.286 44.838 C 296.700 44.966,296.220 45.214,296.220 45.388 C 296.220 45.562,295.967 45.704,295.659 45.704 C 295.350 45.704,294.848 45.986,294.542 46.330 C 294.078 46.852,293.388 47.267,292.440 47.595 C 291.492 47.922,290.802 48.337,290.338 48.859 C 290.032 49.203,289.529 49.485,289.221 49.485 C 288.912 49.485,288.660 49.622,288.660 49.791 C 288.660 49.959,288.273 50.194,287.801 50.313 C 287.328 50.432,286.942 50.680,286.942 50.866 C 286.942 51.051,286.710 51.203,286.426 51.203 C 286.143 51.203,285.911 51.357,285.911 51.546 C 285.911 51.735,285.601 51.890,285.223 51.890 C 284.845 51.890,284.536 52.045,284.536 52.234 C 284.536 52.423,284.315 52.577,284.045 52.577 C 283.775 52.577,283.350 52.780,283.100 53.028 C 282.850 53.276,282.143 53.700,281.529 53.971 C 280.915 54.242,280.412 54.580,280.412 54.723 C 280.412 54.866,280.122 54.983,279.767 54.983 C 279.412 54.983,278.929 55.215,278.694 55.498 C 278.459 55.782,278.053 56.014,277.793 56.014 C 277.533 56.014,277.320 56.168,277.320 56.357 C 277.320 56.546,277.010 56.701,276.632 56.701 C 276.254 56.701,275.945 56.839,275.945 57.007 C 275.945 57.176,275.558 57.411,275.086 57.529 C 274.613 57.648,274.227 57.897,274.227 58.082 C 274.227 58.268,273.995 58.419,273.711 58.419 C 273.428 58.419,273.196 58.574,273.196 58.763 C 273.196 58.952,272.887 59.107,272.509 59.107 C 272.131 59.107,271.820 59.223,271.819 59.364 C 271.817 59.664,269.865 60.825,269.363 60.825 C 269.176 60.825,268.819 61.018,268.571 61.254 C 267.377 62.388,266.656 62.834,265.673 63.050 C 265.086 63.179,264.605 63.427,264.605 63.601 C 264.605 63.775,264.382 63.918,264.109 63.918 C 263.836 63.918,263.411 64.202,263.164 64.549 C 262.917 64.897,262.290 65.286,261.770 65.415 C 261.250 65.544,260.825 65.801,260.825 65.986 C 260.825 66.171,260.655 66.323,260.447 66.323 C 260.035 66.323,258.076 68.299,258.076 68.714 C 258.076 68.855,257.612 69.456,257.045 70.049 C 256.478 70.642,256.014 71.284,256.014 71.475 C 256.014 71.665,255.869 71.821,255.691 71.821 C 255.514 71.821,255.264 72.517,255.137 73.368 C 255.009 74.218,254.768 74.914,254.600 74.914 C 254.433 74.914,254.296 75.610,254.296 76.460 C 254.296 77.311,254.141 78.007,253.952 78.007 C 253.753 78.007,253.608 79.095,253.608 80.584 C 253.608 82.073,253.753 83.162,253.952 83.162 C 254.141 83.162,254.296 83.857,254.296 84.708 C 254.296 85.558,254.450 86.254,254.639 86.254 C 254.828 86.254,254.983 86.687,254.983 87.216 C 254.983 87.746,255.168 88.364,255.395 88.591 C 255.622 88.818,255.693 89.003,255.553 89.003 C 255.302 89.003,255.634 89.474,256.769 90.728 C 257.089 91.082,257.596 91.845,257.894 92.422 C 258.193 92.999,258.549 93.475,258.686 93.481 C 258.823 93.486,259.617 94.098,260.452 94.840 C 261.286 95.583,262.407 96.286,262.943 96.404 C 263.479 96.522,263.918 96.761,263.918 96.935 C 263.918 97.109,264.227 97.251,264.605 97.251 C 264.983 97.251,265.292 97.405,265.292 97.595 C 265.292 97.784,265.679 97.938,266.151 97.938 C 266.624 97.938,267.010 98.099,267.010 98.296 C 267.010 98.530,268.682 98.638,271.821 98.606 C 274.467 98.579,276.632 98.418,276.632 98.248 C 276.632 98.078,277.019 97.938,277.491 97.938 C 277.964 97.938,278.351 97.784,278.351 97.595 C 278.351 97.405,278.814 97.251,279.381 97.251 C 279.948 97.251,280.412 97.113,280.412 96.944 C 280.412 96.776,280.799 96.541,281.271 96.422 C 281.744 96.304,282.131 96.055,282.131 95.870 C 282.131 95.684,282.363 95.533,282.646 95.533 C 282.930 95.533,283.162 95.378,283.162 95.189 C 283.162 95.000,283.471 94.845,283.849 94.845 C 284.227 94.845,284.536 94.691,284.536 94.502 C 284.536 94.313,284.768 94.158,285.052 94.158 C 285.335 94.158,285.567 94.006,285.567 93.821 C 285.567 93.636,285.979 93.381,286.482 93.254 C 287.319 93.044,288.048 92.575,289.147 91.537 C 289.373 91.324,290.052 91.041,290.655 90.908 C 291.259 90.776,291.753 90.525,291.753 90.351 C 291.753 90.177,291.976 90.034,292.249 90.034 C 292.521 90.034,292.947 89.746,293.194 89.393 C 293.441 89.041,294.145 88.642,294.759 88.507 C 295.374 88.372,295.876 88.119,295.876 87.945 C 295.876 87.771,296.151 87.629,296.488 87.629 C 296.824 87.629,297.318 87.325,297.585 86.954 C 297.853 86.583,298.485 86.189,298.989 86.078 C 299.494 85.967,300.231 85.575,300.626 85.206 C 301.022 84.838,301.507 84.536,301.704 84.536 C 301.901 84.536,302.062 84.413,302.062 84.263 C 302.062 84.113,302.758 83.703,303.608 83.352 C 304.459 83.001,305.155 82.612,305.155 82.487 C 305.155 82.361,305.696 82.046,306.357 81.787 C 307.019 81.527,307.560 81.206,307.560 81.073 C 307.560 80.940,307.947 80.733,308.419 80.615 C 308.892 80.496,309.278 80.248,309.278 80.062 C 309.278 79.877,309.588 79.725,309.966 79.725 C 310.344 79.725,310.653 79.570,310.653 79.381 C 310.653 79.192,310.885 79.038,311.168 79.038 C 311.452 79.038,311.684 78.883,311.684 78.694 C 311.684 78.505,311.982 78.351,312.347 78.351 C 312.711 78.351,313.241 78.119,313.525 77.835 C 313.808 77.552,314.206 77.320,314.408 77.320 C 314.611 77.320,314.777 77.165,314.777 76.976 C 314.777 76.787,315.069 76.632,315.427 76.632 C 315.785 76.632,316.167 76.400,316.275 76.117 C 316.384 75.833,316.787 75.601,317.171 75.601 C 317.555 75.601,317.869 75.484,317.869 75.342 C 317.869 75.199,318.372 74.863,318.986 74.596 C 319.601 74.329,320.180 74.017,320.275 73.903 C 320.603 73.507,322.314 72.509,322.664 72.509 C 322.988 72.509,323.870 71.877,324.886 70.918 C 325.112 70.705,325.790 70.422,326.394 70.290 C 326.998 70.157,327.491 69.906,327.491 69.732 C 327.491 69.558,327.767 69.416,328.103 69.416 C 328.439 69.416,328.933 69.112,329.201 68.741 C 329.468 68.370,330.128 67.970,330.667 67.851 C 331.207 67.733,331.832 67.340,332.058 66.979 C 332.283 66.618,332.740 66.323,333.072 66.323 C 333.405 66.323,333.677 66.185,333.677 66.017 C 333.677 65.848,334.077 65.610,334.565 65.487 C 335.054 65.365,335.779 64.961,336.177 64.591 C 336.574 64.221,337.102 63.918,337.350 63.918 C 337.598 63.918,337.801 63.802,337.802 63.660 C 337.803 63.518,338.499 63.116,339.348 62.767 C 340.198 62.417,340.893 61.992,340.893 61.822 C 340.893 61.651,341.212 61.512,341.601 61.512 C 341.990 61.512,342.213 61.357,342.096 61.168 C 341.979 60.979,342.202 60.825,342.591 60.825 C 342.981 60.825,343.299 60.670,343.299 60.481 C 343.299 60.292,343.613 60.137,343.997 60.137 C 344.381 60.137,344.784 59.905,344.893 59.622 C 345.002 59.338,345.383 59.107,345.741 59.107 C 346.099 59.107,346.392 58.952,346.392 58.763 C 346.392 58.574,346.557 58.419,346.760 58.419 C 346.962 58.419,347.360 58.187,347.644 57.904 C 347.927 57.620,348.457 57.388,348.822 57.388 C 349.186 57.388,349.485 57.234,349.485 57.045 C 349.485 56.856,349.716 56.701,350.000 56.701 C 350.284 56.701,350.515 56.546,350.515 56.357 C 350.515 56.168,350.834 56.014,351.223 56.014 C 351.612 56.014,351.843 55.872,351.735 55.698 C 351.628 55.524,352.006 55.280,352.574 55.155 C 353.143 55.030,353.608 54.824,353.608 54.696 C 353.608 54.568,354.111 54.241,354.725 53.969 C 355.339 53.697,356.136 53.201,356.495 52.866 C 356.855 52.531,357.280 52.339,357.440 52.438 C 357.601 52.537,357.732 52.454,357.732 52.254 C 357.732 52.054,358.007 51.890,358.343 51.890 C 358.680 51.890,359.178 51.581,359.450 51.203 C 359.723 50.825,360.143 50.515,360.385 50.515 C 360.627 50.515,360.825 50.378,360.825 50.210 C 360.825 50.042,361.332 49.809,361.953 49.693 C 362.573 49.577,363.303 49.173,363.575 48.796 C 363.847 48.419,364.344 48.110,364.681 48.110 C 365.017 48.110,365.292 47.968,365.292 47.794 C 365.292 47.620,365.763 47.374,366.339 47.247 C 366.915 47.121,367.571 46.722,367.797 46.361 C 368.022 46.000,368.479 45.704,368.811 45.704 C 369.144 45.704,369.416 45.562,369.416 45.388 C 369.416 45.214,369.859 44.974,370.400 44.856 C 370.942 44.737,371.708 44.338,372.104 43.969 C 372.500 43.601,372.985 43.299,373.182 43.299 C 373.378 43.299,373.540 43.144,373.540 42.955 C 373.540 42.766,373.830 42.612,374.185 42.612 C 374.540 42.612,375.022 42.380,375.258 42.096 C 375.493 41.813,375.899 41.581,376.159 41.581 C 376.419 41.581,376.632 41.426,376.632 41.237 C 376.632 41.048,376.942 40.893,377.320 40.893 C 377.698 40.893,378.007 40.757,378.007 40.590 C 378.007 40.423,378.277 40.195,378.608 40.084 C 379.194 39.888,380.410 39.178,380.756 38.831 C 380.851 38.736,381.392 38.427,381.959 38.144 C 382.526 37.861,383.194 37.436,383.444 37.199 C 383.694 36.963,384.196 36.770,384.561 36.770 C 384.925 36.770,385.223 36.615,385.223 36.426 C 385.223 36.237,385.455 36.082,385.739 36.082 C 386.022 36.082,386.254 35.928,386.254 35.739 C 386.254 35.550,386.564 35.395,386.942 35.395 C 387.320 35.395,387.629 35.251,387.629 35.075 C 387.629 34.898,387.965 34.648,388.376 34.517 C 389.130 34.278,389.539 33.999,390.746 32.904 C 391.111 32.573,391.576 32.302,391.780 32.302 C 392.344 32.302,396.093 28.432,396.368 27.566 C 396.501 27.147,396.754 26.804,396.930 26.804 C 397.107 26.804,397.251 26.572,397.251 26.289 C 397.251 26.005,397.405 25.773,397.595 25.773 C 397.784 25.773,397.938 25.495,397.938 25.155 C 397.938 24.814,398.131 24.343,398.368 24.107 C 398.681 23.794,398.797 21.940,398.797 17.280 C 398.797 12.467,398.691 10.847,398.368 10.739 C 398.131 10.660,397.938 10.299,397.938 9.937 C 397.938 9.575,397.784 9.278,397.595 9.278 C 397.405 9.278,397.251 9.046,397.251 8.763 C 397.251 8.479,397.096 8.247,396.907 8.247 C 396.718 8.247,396.564 8.004,396.564 7.707 C 396.564 6.423,390.231 1.031,388.722 1.031 C 388.530 1.031,388.310 0.841,388.233 0.609 C 388.090 0.181,377.287 -0.135,375.172 0.228 M200.344 95.189 C 200.344 95.378,199.493 95.533,198.454 95.533 C 197.414 95.533,196.564 95.667,196.564 95.832 C 196.564 95.996,195.834 96.213,194.943 96.313 C 194.051 96.414,193.265 96.666,193.196 96.873 C 193.126 97.081,192.773 97.251,192.411 97.251 C 192.049 97.251,191.466 97.538,191.115 97.888 C 190.764 98.239,190.058 98.631,189.545 98.760 C 189.032 98.889,188.061 99.509,187.387 100.139 C 185.318 102.072,184.944 102.355,184.737 102.148 C 184.626 102.038,184.536 102.208,184.536 102.526 C 184.536 102.844,183.995 103.631,183.333 104.273 C 182.672 104.915,182.131 105.669,182.131 105.948 C 182.131 106.227,181.912 106.539,181.645 106.642 C 181.379 106.744,180.961 107.379,180.717 108.053 C 180.474 108.727,180.151 109.278,180.000 109.278 C 179.849 109.278,179.725 109.742,179.725 110.309 C 179.725 110.876,179.570 111.340,179.381 111.340 C 179.192 111.340,179.038 111.714,179.038 112.171 C 179.038 112.627,178.845 113.066,178.608 113.144 C 178.285 113.252,178.179 114.872,178.179 119.685 C 178.179 124.344,178.295 126.198,178.608 126.512 C 178.845 126.748,179.038 127.375,179.038 127.904 C 179.038 128.433,179.192 128.866,179.381 128.866 C 179.570 128.866,179.725 129.253,179.725 129.725 C 179.725 130.198,179.860 130.584,180.026 130.584 C 180.191 130.584,180.412 131.009,180.518 131.529 C 180.623 132.049,181.029 132.816,181.420 133.233 C 181.811 133.650,182.131 134.083,182.131 134.194 C 182.131 134.305,182.517 134.782,182.990 135.255 C 183.462 135.727,183.849 136.266,183.849 136.453 C 183.849 136.817,186.093 139.175,186.439 139.175 C 186.554 139.175,186.863 139.369,187.126 139.605 C 188.156 140.529,188.639 140.893,188.831 140.893 C 188.942 140.893,189.356 141.195,189.752 141.564 C 190.147 141.932,190.914 142.331,191.455 142.450 C 191.997 142.569,192.440 142.809,192.440 142.983 C 192.440 143.157,192.826 143.299,193.299 143.299 C 193.771 143.299,194.158 143.454,194.158 143.643 C 194.158 143.832,194.609 143.986,195.160 143.986 C 195.712 143.986,196.227 144.179,196.305 144.414 C 196.412 144.734,198.031 144.841,202.749 144.841 C 207.468 144.841,209.087 144.734,209.193 144.414 C 209.272 144.179,209.787 143.986,210.338 143.986 C 210.889 143.986,211.340 143.832,211.340 143.643 C 211.340 143.454,211.727 143.299,212.199 143.299 C 212.672 143.299,213.058 143.151,213.058 142.971 C 213.058 142.790,213.600 142.541,214.261 142.417 C 214.923 142.293,215.464 142.054,215.464 141.886 C 215.464 141.718,215.662 141.581,215.904 141.581 C 216.145 141.581,216.566 141.271,216.838 140.893 C 217.111 140.515,217.542 140.206,217.796 140.206 C 218.406 140.206,222.680 135.857,222.680 135.236 C 222.680 134.971,222.990 134.656,223.368 134.536 C 223.746 134.416,224.055 134.030,224.055 133.678 C 224.055 133.327,224.287 132.807,224.570 132.523 C 224.854 132.240,225.086 131.842,225.086 131.640 C 225.086 131.437,225.241 131.271,225.430 131.271 C 225.619 131.271,225.773 130.980,225.773 130.623 C 225.773 130.267,226.004 129.533,226.287 128.991 C 226.569 128.450,226.801 127.504,226.802 126.890 C 226.803 126.276,226.959 125.773,227.148 125.773 C 227.363 125.773,227.491 123.654,227.491 120.103 C 227.491 116.985,227.356 114.433,227.191 114.433 C 227.027 114.433,226.814 113.628,226.720 112.643 C 226.625 111.659,226.373 110.796,226.160 110.725 C 225.947 110.654,225.773 110.308,225.773 109.957 C 225.773 109.606,225.619 109.223,225.430 109.107 C 225.241 108.990,225.086 108.594,225.086 108.227 C 225.086 107.860,224.942 107.560,224.765 107.560 C 224.589 107.560,224.335 107.212,224.201 106.787 C 224.067 106.362,223.670 105.764,223.319 105.458 C 222.968 105.152,222.680 104.798,222.680 104.670 C 222.680 104.089,218.935 100.344,218.354 100.344 C 218.226 100.344,217.872 100.056,217.566 99.706 C 217.260 99.355,216.662 98.958,216.237 98.823 C 215.812 98.689,215.464 98.435,215.464 98.259 C 215.464 98.082,215.155 97.938,214.777 97.938 C 214.399 97.938,214.088 97.822,214.087 97.680 C 214.082 97.264,212.316 96.552,210.739 96.331 C 209.936 96.219,209.278 95.993,209.278 95.830 C 209.278 95.666,208.351 95.533,207.216 95.533 C 206.071 95.533,205.155 95.380,205.155 95.189 C 205.155 94.993,204.124 94.845,202.749 94.845 C 201.375 94.845,200.344 94.993,200.344 95.189 M377.921 175.830 C 377.212 175.916,376.632 176.132,376.632 176.309 C 376.632 176.487,376.246 176.632,375.773 176.632 C 375.301 176.632,374.914 176.787,374.914 176.976 C 374.914 177.165,374.605 177.320,374.227 177.320 C 373.849 177.320,373.540 177.474,373.540 177.663 C 373.540 177.852,373.324 178.007,373.060 178.007 C 372.797 178.007,372.062 178.492,371.428 179.085 C 370.794 179.678,369.787 180.535,369.191 180.990 C 368.596 181.445,368.013 182.197,367.896 182.661 C 367.780 183.125,367.533 183.505,367.347 183.505 C 367.162 183.505,367.010 183.737,367.010 184.021 C 367.010 184.304,366.856 184.536,366.667 184.536 C 366.478 184.536,366.323 184.845,366.323 185.223 C 366.323 185.601,366.170 185.911,365.983 185.911 C 365.797 185.911,365.544 186.533,365.423 187.293 C 365.301 188.053,365.067 188.758,364.903 188.860 C 364.510 189.103,364.511 275.601,364.905 275.601 C 365.069 275.601,365.302 276.212,365.421 276.958 C 365.652 278.402,366.871 280.756,367.388 280.756 C 367.558 280.756,367.698 280.995,367.698 281.286 C 367.698 282.017,371.032 285.441,372.224 285.935 C 372.758 286.156,373.196 286.474,373.196 286.640 C 373.196 286.806,373.428 286.942,373.711 286.942 C 373.995 286.942,374.227 287.096,374.227 287.285 C 374.227 287.474,374.601 287.629,375.057 287.629 C 375.514 287.629,375.952 287.822,376.031 288.058 C 376.138 288.381,377.705 288.488,382.302 288.488 C 386.899 288.488,388.466 288.381,388.574 288.058 C 388.653 287.822,389.177 287.629,389.740 287.629 C 390.302 287.629,390.690 287.511,390.601 287.368 C 390.512 287.225,391.055 286.808,391.808 286.442 C 393.397 285.669,397.251 282.098,397.251 281.398 C 397.251 281.136,397.566 280.724,397.951 280.484 C 398.337 280.243,398.566 279.907,398.461 279.738 C 398.356 279.568,398.428 279.332,398.620 279.213 C 398.812 279.094,398.969 278.633,398.969 278.187 C 398.969 277.741,399.162 277.312,399.399 277.234 C 400.020 277.027,400.031 187.238,399.410 187.031 C 399.179 186.954,398.891 186.362,398.770 185.714 C 398.648 185.066,398.412 184.536,398.244 184.536 C 398.076 184.536,397.938 184.338,397.938 184.096 C 397.938 183.855,397.629 183.434,397.251 183.162 C 396.873 182.889,396.564 182.475,396.564 182.240 C 396.564 181.812,394.024 179.038,393.632 179.038 C 393.516 179.038,393.190 178.806,392.906 178.522 C 392.623 178.239,392.093 178.007,391.728 178.007 C 391.364 178.007,391.065 177.852,391.065 177.663 C 391.065 177.474,390.833 177.320,390.550 177.320 C 390.266 177.320,390.034 177.165,390.034 176.976 C 390.034 176.787,389.679 176.632,389.244 176.632 C 388.809 176.632,388.276 176.454,388.058 176.237 C 387.648 175.827,380.358 175.535,377.921 175.830 " stroke="none" fill="#3ca44c" fill-rule="evenodd"></path><path id="path2" d="M8.247 26.080 C 8.247 26.249,8.489 26.480,8.785 26.593 C 9.080 26.706,9.245 26.924,9.151 27.076 C 9.057 27.228,9.125 27.577,9.302 27.851 C 9.685 28.445,9.554 27.374,9.121 26.375 C 8.851 25.749,8.247 25.545,8.247 26.080 M80.963 29.350 C 81.144 29.822,82.752 30.421,83.046 30.127 C 83.127 30.046,82.800 29.881,82.318 29.760 C 81.837 29.639,81.443 29.388,81.443 29.203 C 81.443 29.018,81.294 28.866,81.110 28.866 C 80.927 28.866,80.861 29.084,80.963 29.350 M102.600 41.888 C 102.495 42.058,102.641 42.285,102.923 42.393 C 103.235 42.513,103.436 42.392,103.436 42.085 C 103.436 41.530,102.899 41.403,102.600 41.888 M41.879 48.418 C 42.138 48.582,42.464 48.902,42.604 49.129 C 42.789 49.428,42.920 49.386,43.075 48.980 C 43.194 48.671,43.149 48.506,42.975 48.613 C 42.801 48.721,42.562 48.651,42.443 48.459 C 42.325 48.267,42.043 48.112,41.818 48.115 C 41.547 48.119,41.567 48.221,41.879 48.418 M136.273 61.199 C 136.553 61.652,137.801 62.270,137.798 61.954 C 137.797 61.805,137.410 61.505,136.938 61.286 C 136.467 61.068,136.168 61.028,136.273 61.199 M65.721 62.285 C 65.800 62.521,66.150 62.770,66.499 62.838 C 67.082 62.951,67.089 62.916,66.581 62.408 C 65.921 61.748,65.524 61.691,65.721 62.285 M151.103 76.381 C 151.202 76.897,151.419 77.320,151.586 77.320 C 152.027 77.320,151.959 76.858,151.407 76.103 C 150.955 75.485,150.936 75.503,151.103 76.381 M151.645 80.584 C 151.647 81.529,151.714 81.875,151.793 81.353 C 151.872 80.830,151.870 80.057,151.788 79.634 C 151.707 79.212,151.642 79.639,151.645 80.584 M117.182 92.073 C 117.182 92.214,117.569 92.506,118.041 92.721 C 118.514 92.936,118.899 93.000,118.898 92.862 C 118.896 92.724,118.510 92.433,118.039 92.214 C 117.568 91.996,117.182 91.933,117.182 92.073 M132.223 98.531 C 132.840 98.607,133.768 98.606,134.285 98.527 C 134.801 98.449,134.296 98.386,133.162 98.388 C 132.027 98.390,131.605 98.454,132.223 98.531 M136.856 98.519 C 137.186 98.605,137.728 98.605,138.058 98.519 C 138.389 98.432,138.119 98.362,137.457 98.362 C 136.796 98.362,136.525 98.432,136.856 98.519 M194.416 183.742 C 194.085 183.828,193.814 184.017,193.814 184.160 C 193.814 184.586,194.670 184.458,195.132 183.963 C 195.569 183.496,195.473 183.466,194.416 183.742 M188.660 188.832 C 188.660 189.115,188.428 189.347,188.144 189.347 C 187.861 189.347,187.629 189.507,187.629 189.703 C 187.629 189.944,187.850 189.940,188.316 189.691 C 188.914 189.371,189.309 188.316,188.832 188.316 C 188.737 188.316,188.660 188.548,188.660 188.832 M217.869 190.497 C 217.869 190.620,218.179 191.031,218.557 191.409 C 218.935 191.787,219.244 191.966,219.244 191.806 C 219.244 191.646,218.935 191.236,218.557 190.893 C 218.179 190.551,217.869 190.373,217.869 190.497 M184.538 263.381 C 184.541 306.357,184.660 328.866,184.883 328.866 C 185.358 328.866,185.353 198.402,184.878 198.109 C 184.647 197.966,184.534 219.591,184.538 263.381 " stroke="none" fill="#acacac" fill-rule="evenodd"></path><path id="path3" d="" stroke="none" fill="#8ca8a8" fill-rule="evenodd"></path><path id="path4" d="" stroke="none" fill="#8ca8a8" fill-rule="evenodd"></path></g></svg>